<svg xmlns="http://www.w3.org/2000/svg" width="644.96344" height="1659.3035" viewBox="0 0 644.96344 1659.3035"><rect x="0" y="0" width="644.96344" height="1659.3035" fill="#FFFFFF"/><defs><marker id="arrow-0" viewBox="0 0 10 10" refX="5" refY="5" markerUnits="userSpaceOnUse" markerWidth="8" markerHeight="8" orient="auto"><path d="M 0 0 L 10 5 L 0 10 z" fill="#2F3B4D" stroke="#2F3B4D" stroke-width="1" stroke-dasharray="1,0"/></marker><marker id="arrow-start-0" viewBox="0 0 10 10" refX="4.5" refY="5" markerUnits="userSpaceOnUse" markerWidth="8" markerHeight="8" orient="auto"><path d="M 0 5 L 10 10 L 10 0 z" fill="#2F3B4D" stroke="#2F3B4D" stroke-width="1" stroke-dasharray="1,0"/></marker></defs><path id="edge-0" class="edgePath" data-edge-id="edge-0" d="M 272.648,86.000 L 272.648,95.625 Q 272.648,103.500 267.817,109.719 L 265.828,112.281 Q 260.997,118.500 260.997,126.375 L 260.997,136.000" fill="none" stroke="#2F3B4D" stroke-width="2"    stroke-linecap="round" stroke-linejoin="round" /><g transform="translate(261.00 136.00) rotate(90.00)"><polygon points="0,0 -7.50,3.90 -7.50,-3.90" fill="#2F3B4D" stroke="#2F3B4D" stroke-width="2" stroke-linejoin="round" stroke-linecap="round"/></g><path id="edge-1" class="edgePath" data-edge-id="edge-1" d="M 400.648,86.000 L 400.648,95.625 Q 400.648,103.500 407.615,107.171 L 422.146,114.829 Q 429.113,118.500 429.113,126.375 L 429.113,136.000" fill="none" stroke="#2F3B4D" stroke-width="2"    stroke-linecap="round" stroke-linejoin="round" /><g transform="translate(429.11 136.00) rotate(90.00)"><polygon points="0,0 -7.50,3.90 -7.50,-3.90" fill="#2F3B4D" stroke="#2F3B4D" stroke-width="2" stroke-linejoin="round" stroke-linecap="round"/></g><path id="edge-2" class="edgePath" data-edge-id="edge-2" d="M 494.566,262.000 L 494.566,272.260 Q 494.566,279.500 491.946,286.250 L 491.364,287.750 Q 488.745,294.500 488.745,301.740 L 488.745,312.000" fill="none" stroke="#2F3B4D" stroke-width="2"    stroke-linecap="round" stroke-linejoin="round" /><g transform="translate(488.74 312.00) rotate(90.00)"><polygon points="0,0 -7.50,3.90 -7.50,-3.90" fill="#2F3B4D" stroke="#2F3B4D" stroke-width="2" stroke-linejoin="round" stroke-linecap="round"/></g><path id="edge-3" class="edgePath" data-edge-id="edge-3" d="M 182.959,262.000 L 182.959,272.446 Q 182.959,279.500 185.007,286.250 L 185.462,287.750 Q 187.510,294.500 187.510,301.554 L 187.510,312.000" fill="none" stroke="#2F3B4D" stroke-width="2"    stroke-linecap="round" stroke-linejoin="round" /><g transform="translate(187.51 312.00) rotate(90.00)"><polygon points="0,0 -7.50,3.90 -7.50,-3.90" fill="#2F3B4D" stroke="#2F3B4D" stroke-width="2" stroke-linejoin="round" stroke-linecap="round"/></g><path id="edge-4" class="edgePath" data-edge-id="edge-4" d="M 187.510,414.000 L 187.510,424.706 Q 187.510,431.500 188.283,438.250 L 188.454,439.750 Q 189.227,446.500 189.227,453.294 L 189.227,464.000" fill="none" stroke="#2F3B4D" stroke-width="2"    stroke-linecap="round" stroke-linejoin="round" /><g transform="translate(189.23 464.00) rotate(90.00)"><polygon points="0,0 -7.50,3.90 -7.50,-3.90" fill="#2F3B4D" stroke="#2F3B4D" stroke-width="2" stroke-linejoin="round" stroke-linecap="round"/></g><path id="edge-5" class="edgePath" data-edge-id="edge-5" d="M 189.227,566.000 L 189.227,576.711 Q 189.227,583.500 189.958,590.250 L 190.120,591.750 Q 190.851,598.500 190.851,605.289 L 190.851,616.000" fill="none" stroke="#2F3B4D" stroke-width="2"    stroke-linecap="round" stroke-linejoin="round" /><g transform="translate(190.85 616.00) rotate(90.00)"><polygon points="0,0 -7.50,3.90 -7.50,-3.90" fill="#2F3B4D" stroke="#2F3B4D" stroke-width="2" stroke-linejoin="round" stroke-linecap="round"/></g><path id="edge-6" class="edgePath" data-edge-id="edge-6" d="M 190.851,718.000 L 190.851,728.716 Q 190.851,735.500 191.525,742.250 L 191.675,743.750 Q 192.350,750.500 192.350,757.284 L 192.350,768.000" fill="none" stroke="#2F3B4D" stroke-width="2"    stroke-linecap="round" stroke-linejoin="round" /><g transform="translate(192.35 768.00) rotate(90.00)"><polygon points="0,0 -7.50,3.90 -7.50,-3.90" fill="#2F3B4D" stroke="#2F3B4D" stroke-width="2" stroke-linejoin="round" stroke-linecap="round"/></g><path id="edge-7" class="edgePath" data-edge-id="edge-7" d="M 192.350,822.000 L 192.350,832.723 Q 192.350,839.500 192.954,846.250 L 193.088,847.750 Q 193.692,854.500 193.692,861.277 L 193.692,872.000" fill="none" stroke="#2F3B4D" stroke-width="2"    stroke-linecap="round" stroke-linejoin="round" /><g transform="translate(193.69 872.00) rotate(90.00)"><polygon points="0,0 -7.50,3.90 -7.50,-3.90" fill="#2F3B4D" stroke="#2F3B4D" stroke-width="2" stroke-linejoin="round" stroke-linecap="round"/></g><path id="edge-8" class="edgePath" data-edge-id="edge-8" d="M 456.614,390.000 L 456.614,965.000 Q 456.614,975.000 446.614,975.000 L 236.854,975.000 Q 226.854,975.000 226.854,985.000 L 226.854,1032.000" fill="none" stroke="#2F3B4D" stroke-width="2"    stroke-linecap="round" stroke-linejoin="round" /><g transform="translate(226.85 1032.00) rotate(90.00)"><polygon points="0,0 -7.50,3.90 -7.50,-3.90" fill="#2F3B4D" stroke="#2F3B4D" stroke-width="2" stroke-linejoin="round" stroke-linecap="round"/></g><path id="edge-9" class="edgePath" data-edge-id="edge-9" d="M 194.036,950.000 L 194.036,1000.475" fill="none" stroke="#2F3B4D" stroke-width="2"    stroke-linecap="round" stroke-linejoin="round" /><g transform="translate(194.04 1000.47) rotate(90.00)"><polygon points="0,0 -7.50,3.90 -7.50,-3.90" fill="#2F3B4D" stroke="#2F3B4D" stroke-width="2" stroke-linejoin="round" stroke-linecap="round"/></g><path id="edge-10" class="edgePath" data-edge-id="edge-10" d="M 195.854,1122.119 L 205.454,1122.119 L 46.400,1122.119 Q 36.400,1122.119 36.400,1132.119 L 36.400,1300.303 Q 36.400,1310.303 46.400,1310.303 L 96.946,1310.303" fill="none" stroke="#2F3B4D" stroke-width="2"    stroke-linecap="round" stroke-linejoin="round" /><g transform="translate(96.95 1310.30) rotate(0.00)"><polygon points="0,0 -7.50,3.90 -7.50,-3.90" fill="#2F3B4D" stroke="#2F3B4D" stroke-width="2" stroke-linejoin="round" stroke-linecap="round"/></g><rect data-edge-id="edge-10" data-label-kind="center" x="8.00" y="1117.48" width="26.40" height="28.40" rx="2" ry="2" fill="rgba(248,250,252, 0.92)" fill-opacity="0.00" stroke="#7B88A8" stroke-opacity="0.00" stroke-width="0.8"/><g class="edgeLabel" data-edge-id="edge-10" data-label-kind="center"><text x="21.20" y="1135.68" text-anchor="middle" font-family="trebuchet ms,verdana,arial,DejaVu Sans,Liberation Sans,sans-serif,Noto Color Emoji,Apple Color Emoji,Segoe UI Emoji" font-size="16" fill="#333333"><tspan x="21.20" dy="0.00">no</tspan></text></g><path id="edge-11" class="edgePath" data-edge-id="edge-11" d="M 195.517,1122.748 L 195.517,1181.303" fill="none" stroke="#2F3B4D" stroke-width="2"    stroke-linecap="round" stroke-linejoin="round" /><g transform="translate(195.52 1181.30) rotate(90.00)"><polygon points="0,0 -7.50,3.90 -7.50,-3.90" fill="#2F3B4D" stroke="#2F3B4D" stroke-width="2" stroke-linejoin="round" stroke-linecap="round"/></g><rect data-edge-id="edge-11" data-label-kind="center" x="158.42" y="1137.83" width="35.10" height="28.40" rx="2" ry="2" fill="rgba(248,250,252, 0.92)" fill-opacity="0.00" stroke="#7B88A8" stroke-opacity="0.00" stroke-width="0.8"/><g class="edgeLabel" data-edge-id="edge-11" data-label-kind="center"><text x="175.97" y="1156.03" text-anchor="middle" font-family="trebuchet ms,verdana,arial,DejaVu Sans,Liberation Sans,sans-serif,Noto Color Emoji,Apple Color Emoji,Segoe UI Emoji" font-size="16" fill="#333333"><tspan x="175.97" dy="0.00">yes</tspan></text></g><path id="edge-12" class="edgePath" data-edge-id="edge-12" d="M 196.065,1259.303 L 196.065,1309.303" fill="none" stroke="#2F3B4D" stroke-width="2"    stroke-linecap="round" stroke-linejoin="round" /><g transform="translate(196.07 1309.30) rotate(90.00)"><polygon points="0,0 -7.50,3.90 -7.50,-3.90" fill="#2F3B4D" stroke="#2F3B4D" stroke-width="2" stroke-linejoin="round" stroke-linecap="round"/></g><path id="edge-13" class="edgePath" data-edge-id="edge-13" d="M 196.876,1387.303 L 196.876,1437.303" fill="none" stroke="#2F3B4D" stroke-width="2"    stroke-linecap="round" stroke-linejoin="round" /><g transform="translate(196.88 1437.30) rotate(90.00)"><polygon points="0,0 -7.50,3.90 -7.50,-3.90" fill="#2F3B4D" stroke="#2F3B4D" stroke-width="2" stroke-linejoin="round" stroke-linecap="round"/></g><path id="edge-14" class="edgePath" data-edge-id="edge-14" d="M 197.167,1491.303 L 197.167,1541.303" fill="none" stroke="#2F3B4D" stroke-width="2"    stroke-linecap="round" stroke-linejoin="round" /><g transform="translate(197.17 1541.30) rotate(90.00)"><polygon points="0,0 -7.50,3.90 -7.50,-3.90" fill="#2F3B4D" stroke="#2F3B4D" stroke-width="2" stroke-linejoin="round" stroke-linecap="round"/></g><polygon points="194.85,1000.00 256.41,1061.56 194.85,1123.12 133.29,1061.56" fill="#ECECFF" stroke="#7B88A8" stroke-width="1" stroke-linejoin="round" stroke-linecap="round"/><text x="194.85" y="1053.56" text-anchor="middle" font-family="trebuchet ms,verdana,arial,DejaVu Sans,Liberation Sans,sans-serif,Noto Color Emoji,Apple Color Emoji,Segoe UI Emoji" font-size="16" fill="#333333"><tspan x="194.85" dy="0.00">triggers</tspan><tspan x="194.85" dy="24.00">found?</tspan></text><rect x="61.41" y="1181.30" width="268.80" height="78.00" rx="3" ry="3" fill="#ECECFF" stroke="#7B88A8" stroke-width="1" stroke-linejoin="round" stroke-linecap="round"/><text x="195.81" y="1212.30" text-anchor="middle" font-family="trebuchet ms,verdana,arial,DejaVu Sans,Liberation Sans,sans-serif,Noto Color Emoji,Apple Color Emoji,Segoe UI Emoji" font-size="16" fill="#333333"><tspan x="195.81" dy="0.00">blend</tspan><tspan x="195.81" dy="24.00">0.35 * base + 0.65 * fin</tspan></text><rect x="393.50" y="312.00" width="190.50" height="78.00" rx="3" ry="3" fill="#ECECFF" stroke="#7B88A8" stroke-width="1" stroke-linejoin="round" stroke-linecap="round"/><text x="488.74" y="343.00" text-anchor="middle" font-family="trebuchet ms,verdana,arial,DejaVu Sans,Liberation Sans,sans-serif,Noto Color Emoji,Apple Color Emoji,Segoe UI Emoji" font-size="16" fill="#333333"><tspan x="488.74" dy="0.00">base VADER</tspan><tspan x="488.74" dy="24.00">polarity_scores</tspan></text><rect x="96.95" y="1309.30" width="199.20" height="78.00" rx="3" ry="3" fill="#ECECFF" stroke="#7B88A8" stroke-width="1" stroke-linejoin="round" stroke-linecap="round"/><text x="196.54" y="1340.30" text-anchor="middle" font-family="trebuchet ms,verdana,arial,DejaVu Sans,Liberation Sans,sans-serif,Noto Color Emoji,Apple Color Emoji,Segoe UI Emoji" font-size="16" fill="#333333"><tspan x="196.54" dy="0.00">+ catalyst bonus</tspan><tspan x="196.54" dy="24.00">(+/- 0.25)</tspan></text><rect x="110.49" y="1437.30" width="173.10" height="54.00" rx="3" ry="3" fill="#ECECFF" stroke="#7B88A8" stroke-width="1" stroke-linejoin="round" stroke-linecap="round"/><text x="197.04" y="1468.30" text-anchor="middle" font-family="trebuchet ms,verdana,arial,DejaVu Sans,Liberation Sans,sans-serif,Noto Color Emoji,Apple Color Emoji,Segoe UI Emoji" font-size="16" fill="#333333"><tspan x="197.04" dy="0.00">clamp [-1, 1]</tspan></text><rect x="85.39" y="872.00" width="216.60" height="78.00" rx="3" ry="3" fill="#ECECFF" stroke="#7B88A8" stroke-width="1" stroke-linejoin="round" stroke-linecap="round"/><text x="193.69" y="903.00" text-anchor="middle" font-family="trebuchet ms,verdana,arial,DejaVu Sans,Liberation Sans,sans-serif,Noto Color Emoji,Apple Color Emoji,Segoe UI Emoji" font-size="16" fill="#333333"><tspan x="193.69" dy="0.00">fin_compound</tspan><tspan x="193.69" dy="24.00">x / sqrt(x^2 + 15)</tspan></text><rect x="131.90" y="768.00" width="120.90" height="54.00" rx="3" ry="3" fill="#ECECFF" stroke="#7B88A8" stroke-width="1" stroke-linejoin="round" stroke-linecap="round"/><text x="192.35" y="799.00" text-anchor="middle" font-family="trebuchet ms,verdana,arial,DejaVu Sans,Liberation Sans,sans-serif,Noto Color Emoji,Apple Color Emoji,Segoe UI Emoji" font-size="16" fill="#333333"><tspan x="192.35" dy="0.00">fin_sum</tspan></text><rect x="54.83" y="464.00" width="268.80" height="102.00" rx="3" ry="3" fill="#ECECFF" stroke="#7B88A8" stroke-width="1" stroke-linejoin="round" stroke-linecap="round"/><text x="189.23" y="495.00" text-anchor="middle" font-family="trebuchet ms,verdana,arial,DejaVu Sans,Liberation Sans,sans-serif,Noto Color Emoji,Apple Color Emoji,Segoe UI Emoji" font-size="16" fill="#333333"><tspan x="189.23" dy="0.00">gap_pass</tspan><tspan x="189.23" dy="24.00">verb...object pairs</tspan><tspan x="189.23" dy="24.00">(beats ... expectations)</tspan></text><rect x="360.17" y="136.00" width="268.80" height="126.00" rx="3" ry="3" fill="#ECECFF" stroke="#7B88A8" stroke-width="1" stroke-linejoin="round" stroke-linecap="round"/><text x="494.57" y="167.00" text-anchor="middle" font-family="trebuchet ms,verdana,arial,DejaVu Sans,Liberation Sans,sans-serif,Noto Color Emoji,Apple Color Emoji,Segoe UI Emoji" font-size="16" fill="#333333"><tspan x="494.57" dy="0.00">mask_for_base</tspan><tspan x="494.57" dy="24.00">neutral-override finance</tspan><tspan x="494.57" dy="24.00">words</tspan><tspan x="494.57" dy="24.00">(gross, cancer, debt...)</tspan></text><rect x="50.07" y="136.00" width="260.10" height="126.00" rx="3" ry="3" fill="#ECECFF" stroke="#7B88A8" stroke-width="1" stroke-linejoin="round" stroke-linecap="round"/><text x="180.12" y="167.00" text-anchor="middle" font-family="trebuchet ms,verdana,arial,DejaVu Sans,Liberation Sans,sans-serif,Noto Color Emoji,Apple Color Emoji,Segoe UI Emoji" font-size="16" fill="#333333"><tspan x="180.12" dy="0.00">normalize</tspan><tspan x="180.12" dy="24.00">lowercase, strip punct,</tspan><tspan x="180.12" dy="24.00">keep hyphen amp percent</tspan><tspan x="180.12" dy="24.00">dollar apostrophe</tspan></text><rect x="84.64" y="1541.30" width="225.30" height="102.00" rx="3" ry="3" fill="#ECECFF" stroke="#7B88A8" stroke-width="1" stroke-linejoin="round" stroke-linecap="round"/><text x="197.29" y="1572.30" text-anchor="middle" font-family="trebuchet ms,verdana,arial,DejaVu Sans,Liberation Sans,sans-serif,Noto Color Emoji,Apple Color Emoji,Segoe UI Emoji" font-size="16" fill="#333333"><tspan x="197.29" dy="0.00">compound + signal</tspan><tspan x="197.29" dy="24.00">StronglyBullish ...</tspan><tspan x="197.29" dy="24.00">StronglyBearish</tspan></text><rect x="70.51" y="312.00" width="234.00" height="102.00" rx="3" ry="3" fill="#ECECFF" stroke="#7B88A8" stroke-width="1" stroke-linejoin="round" stroke-linecap="round"/><text x="187.51" y="343.00" text-anchor="middle" font-family="trebuchet ms,verdana,arial,DejaVu Sans,Liberation Sans,sans-serif,Noto Color Emoji,Apple Color Emoji,Segoe UI Emoji" font-size="16" fill="#333333"><tspan x="187.51" dy="0.00">phrase_pass</tspan><tspan x="187.51" dy="24.00">multi-word phrases</tspan><tspan x="187.51" dy="24.00">(beats expectations)</tspan></text><rect x="215.30" y="8.00" width="242.70" height="78.00" rx="3" ry="3" fill="#ECECFF" stroke="#7B88A8" stroke-width="1" stroke-linejoin="round" stroke-linecap="round"/><text x="336.65" y="39.00" text-anchor="middle" font-family="trebuchet ms,verdana,arial,DejaVu Sans,Liberation Sans,sans-serif,Noto Color Emoji,Apple Color Emoji,Segoe UI Emoji" font-size="16" fill="#333333"><tspan x="336.65" dy="0.00">Input text</tspan><tspan x="336.65" dy="24.00">(headline / sentence)</tspan></text><rect x="86.90" y="616.00" width="207.90" height="102.00" rx="3" ry="3" fill="#ECECFF" stroke="#7B88A8" stroke-width="1" stroke-linejoin="round" stroke-linecap="round"/><text x="190.85" y="647.00" text-anchor="middle" font-family="trebuchet ms,verdana,arial,DejaVu Sans,Liberation Sans,sans-serif,Noto Color Emoji,Apple Color Emoji,Segoe UI Emoji" font-size="16" fill="#333333"><tspan x="190.85" dy="0.00">word_pass</tspan><tspan x="190.85" dy="24.00">single words +</tspan><tspan x="190.85" dy="24.00">up 45% / down 30%</tspan></text></svg>